<svg version="1.1" xmlns="http://www.w3.org/2000/svg" xmlns:xlink="http://www.w3.org/1999/xlink" preserveAspectRatio="xMidYMid meet" viewBox="823 393 173 157">

  <g data-item-type="image" data-item="Image" data-logo-item="" id="logo__item--logo_0" class="logo__item" transform="matrix(1, 0, 0, 1, -8.096413, 4.224216)">
    <g class="logo__item__inner" transform="translate(849.9122735466609 384.5) scale(0.1457903092690241 0.1457903092690241) rotate(0 0 0)">
      <g>
        <path fill="#ffffff" d="M 357.267 423.681 L 417.067 388.581 L 417.067 380.381 L 357.267 375.681 L 357.267 423.681 Z M 477.967 375.581 L 419.367 380.281 L 419.367 388.481 L 477.967 423.581 L 477.967 375.581 Z M 328.767 363.081 L 228.567 401.181 C 228.567 401.181 208.867 491.481 290.667 595.981 C 372.567 700.481 366.967 735.781 366.967 735.781 C 366.967 735.781 412.167 724.481 381.067 590.381 C 349.967 456.281 325.967 375.781 328.767 363.081 Z M 611.467 401.181 L 511.267 363.081 C 514.067 375.781 490.067 456.281 459.067 590.381 C 428.067 724.481 473.167 735.781 473.167 735.781 C 473.167 735.781 467.567 700.481 549.367 596.081 C 631.167 491.581 611.467 401.181 611.467 401.181 Z" data-part-id="logo__item--logo_0__0"></path>
      </g>
    </g>
  </g>
</svg>